<svg xmlns="http://www.w3.org/2000/svg" viewBox="0 0 1600 900"><defs><linearGradient id="bg" x1="0" y1="0" x2="1" y2="1"><stop stop-color="#24130e"/><stop offset=".55" stop-color="#6b2d1e"/><stop offset="1" stop-color="#101820"/></linearGradient><pattern id="wood" width="90" height="90" patternUnits="userSpaceOnUse"><path d="M0 30h90M0 62h90" stroke="#fff" stroke-opacity=".05"/><path d="M25 0v90M68 0v90" stroke="#000" stroke-opacity=".12"/></pattern></defs><rect width="1600" height="900" fill="url(#bg)"/><rect width="1600" height="900" fill="url(#wood)"/><rect y="0" width="1600" height="190" fill="#111827"/><text x="800" y="125" text-anchor="middle" fill="#d73a32" font-family="Georgia,serif" font-style="italic" font-size="92">Welcome to Rudy's</text><rect x="0" y="585" width="1600" height="315" fill="#4a2b1f"/><rect x="0" y="650" width="1600" height="250" fill="#7b8792"/><g opacity=".85"><rect x="230" y="280" width="210" height="310" rx="18" fill="#ece6dc"/><circle cx="335" cy="350" r="58" fill="#162235"/><rect x="260" y="420" width="150" height="160" rx="35" fill="#f2f2f2"/><rect x="695" y="220" width="250" height="380" rx="22" fill="#eee9df"/><circle cx="820" cy="305" r="72" fill="#17263b"/><rect x="730" y="390" width="180" height="190" rx="45" fill="#131b26"/><rect x="1160" y="300" width="195" height="290" rx="18" fill="#eee9df"/><circle cx="1255" cy="365" r="52" fill="#6e1719"/><rect x="1190" y="425" width="130" height="150" rx="30" fill="#ececec"/></g><rect x="555" y="665" width="510" height="48" rx="12" fill="#eee2c8"/><path d="M650 665c65-70 280-70 365 0" fill="#2a120d"/><path d="M660 675h340" stroke="#cc6f42" stroke-width="20" stroke-dasharray="55 18"/><text x="800" y="815" text-anchor="middle" fill="#fff" font-family="Arial" font-weight="700" font-size="34" letter-spacing="8">THE MAN BEHIND THE BBQ MEATS &amp; CUTS</text></svg>