<svg xmlns="http://www.w3.org/2000/svg" viewBox="0 0 900 1200"><rect width="900" height="1200" fill="#07111f"/><rect x="20" y="20" width="860" height="1160" rx="14" fill="none" stroke="#c7362f" stroke-width="4"/><text x="450" y="95" text-anchor="middle" fill="#c7362f" font-family="Georgia,serif" font-style="italic" font-size="58">Welcome to Rudy's</text><text x="60" y="170" fill="#fff" font-family="Arial Black" font-size="68">THE REAL WORK</text><text x="60" y="225" fill="#c99437" font-family="Arial" font-weight="700" font-size="34">BEFORE THE WORLD WAKES UP.</text><circle cx="450" cy="415" r="165" fill="#d6c2a4"/><path d="M315 360q135-150 270 0v-85H315z" fill="#16345a"/><text x="450" y="340" text-anchor="middle" fill="#fff" font-family="Arial Black" font-size="68">NY</text><rect x="285" y="535" width="330" height="245" rx="50" fill="#0b0d11"/><text x="450" y="635" text-anchor="middle" fill="#c7362f" font-family="Georgia" font-style="italic" font-size="62">Rudy's</text><path d="M250 775h400" stroke="#c99437" stroke-width="18"/><text x="450" y="870" text-anchor="middle" fill="#f3eadb" font-family="Arial Black" font-size="72">SCOTTIE SIELE</text><text x="450" y="930" text-anchor="middle" fill="#6da8d6" font-family="Arial" font-weight="700" font-size="30">HARD WORK • SHARP MIND • STRONGER FUTURES</text><g font-family="Arial" font-weight="700" font-size="28" text-anchor="middle"><rect x="55" y="985" width="185" height="115" fill="#0d1d33" stroke="#c7362f"/><text x="148" y="1035" fill="#fff">BARBER</text><text x="148" y="1075" fill="#c7362f">LOOK GOOD</text><rect x="258" y="985" width="185" height="115" fill="#0d1d33" stroke="#c7362f"/><text x="350" y="1035" fill="#fff">STYLE</text><text x="350" y="1075" fill="#c7362f">RUN THE GAME</text><rect x="461" y="985" width="185" height="115" fill="#0d1d33" stroke="#c7362f"/><text x="553" y="1035" fill="#fff">FINANCE</text><text x="553" y="1075" fill="#c7362f">LIVE BETTER</text><rect x="664" y="985" width="185" height="115" fill="#0d1d33" stroke="#c7362f"/><text x="756" y="1035" fill="#fff">ANALYTICS</text><text x="756" y="1075" fill="#c7362f">WIN SMARTER</text></g><text x="450" y="1145" text-anchor="middle" fill="#fff" font-family="Arial" font-size="24">BIG BLUE ALL DAY • BUILT DIFFERENT • BUILT FOR MORE</text></svg>